<svg width="256" height="121" viewBox="0 0 256 121" fill="none" xmlns="http://www.w3.org/2000/svg">
  <path
    d="M121.313 9.68749C122.155 9.65849 122.997 9.62949 123.865 9.5996C129.407 9.54327 132.692 10.1745 137 14C140.097 18.1265 140.356 21.1676 140.293 26.2695C140.289 26.9505 140.284 27.6315 140.28 28.3332C140.263 30.4934 140.226 32.6526 140.188 34.8125C140.172 36.2832 140.159 37.7539 140.146 39.2246C140.114 42.8167 140.062 46.4083 140 50C136.04 50 132.08 50 128 50C127.67 49.34 127.34 48.68 127 48C126.01 48.495 125.02 48.99 124 49.5C119.74 51.3024 116.612 51.5207 112 51C108.969 49.2212 107.45 47.7709 105.688 44.75C104.324 39.2941 104.185 35.5724 106.75 30.625C108.98 28.0237 109.872 27.1411 113 26C116.453 25.8047 116.453 25.8047 120.25 25.875C121.513 25.893 122.777 25.9111 124.078 25.9297C125.042 25.9529 126.007 25.9761 127 26C126.67 24.68 126.34 23.36 126 22C120.39 21.67 114.78 21.34 109 21C109 17.7 109 14.4 109 11C113.122 9.62613 116.995 9.73638 121.313 9.68749Z"
    fill="#F4F4F4" />
  <path
    d="M90.8125 9.81249C91.9756 9.81346 91.9756 9.81346 93.1621 9.81445C98.8593 9.85931 98.8593 9.85931 100 11C100.143 14.3362 100.042 17.6597 100 21C94.72 21 89.44 21 84 21C84 21.99 84 22.98 84 24C85.048 24.1701 86.096 24.3403 87.1758 24.5156C88.5548 24.7595 89.9337 25.0044 91.3125 25.25C92.0028 25.3596 92.6931 25.4691 93.4043 25.582C96.4586 26.1427 98.6097 26.6534 100.957 28.7383C102.281 31.6085 102.399 33.7811 102.375 36.9375C102.383 37.9571 102.39 38.9768 102.398 40.0273C101.933 43.5032 101.194 45.2647 99 48C94.1631 51.2817 90.0017 51.4063 84.375 51.25C83.6248 51.2448 82.8745 51.2397 82.1016 51.2344C78.5211 51.1836 75.4927 50.8732 72 50C72 46.37 72 42.74 72 39C77.61 39 83.22 39 89 39C89 38.01 89 37.02 89 36C88.1196 35.9136 87.2391 35.8273 86.332 35.7383C77.0526 34.6157 77.0526 34.6157 72.6875 32.0625C70.1222 27.407 70.0568 23.1873 71 18C72.6756 14.4073 74.9632 12.4499 78.6289 10.8594C82.778 9.80167 86.5533 9.7435 90.8125 9.81249Z"
    fill="#F6F6F6" />
  <path
    d="M84 69C105.678 68.4535 105.678 68.4535 115 76C120.051 82.9668 119.503 90.6882 119 99C118.029 104.159 115.052 107.564 110.988 110.711C102.569 116.169 93.6738 115.244 84 115C84 108.73 84 102.46 84 96C87.3 96 90.6 96 94 96C94 99.3 94 102.6 94 106C100.758 105.134 100.758 105.134 106.562 102C110.221 96.9104 109.631 91.0515 109 85C106.883 81.4012 105.418 80.4027 101.441 79.2734C98.98 78.7497 96.4899 78.3652 94 78C94 81.3 94 84.6 94 88C90.7 88 87.4 88 84 88C84 81.73 84 75.46 84 69Z"
    fill="#EEEEEE" />
  <path
    d="M121 69C128.26 69 135.52 69 143 69C143 71.97 143 74.94 143 78C138.71 78 134.42 78 130 78C130 81.3 130 84.6 130 88C136.27 88 142.54 88 149 88C149 90.64 149 93.28 149 96C142.73 96 136.46 96 130 96C130 99.3 130 102.6 130 106C134.29 106 138.58 106 143 106C143 108.97 143 111.94 143 115C135.74 115 128.48 115 121 115C121 99.82 121 84.64 121 69Z"
    fill="#F6F6F6" />
  <path
    d="M35 7C35 10.63 35 14.26 35 18C20.4032 23.5558 20.4032 23.5558 13 24C13 24.66 13 25.32 13 26C14.2169 26.2475 15.4337 26.495 16.6875 26.75C22.9038 28.1204 28.9388 30.0702 35 32C35 35.96 35 39.92 35 44C27.2917 41.9941 19.8442 39.6343 12.375 36.875C11.3837 36.5154 10.3924 36.1557 9.37109 35.7852C2.13484 33.1348 2.13484 33.1348 0.999994 32C0.927277 29.6469 0.916286 27.2917 0.937494 24.9375C0.946518 23.6471 0.955541 22.3568 0.964838 21.0273C0.97644 20.0283 0.988041 19.0293 0.999994 18C5.19615 16.4251 9.39538 14.8588 13.5977 13.3003C15.0263 12.7691 16.454 12.2356 17.8809 11.6997C19.934 10.9291 21.99 10.1669 24.0469 9.40625C25.2828 8.94541 26.5186 8.48457 27.792 8.00977C31 7 31 7 35 7Z"
    fill="#00B75E" />
  <path
    d="M222 72C226.478 72.6198 230.464 73.7462 234.711 75.2852C235.324 75.5057 235.937 75.7262 236.568 75.9535C238.506 76.6517 240.44 77.357 242.375 78.0625C243.696 78.5402 245.018 79.0174 246.34 79.4941C249.562 80.6582 252.781 81.8285 256 83C256 87.62 256 92.24 256 97C255.031 97.3635 254.061 97.727 253.062 98.1016C252.102 98.4619 252.102 98.4619 251.122 98.8296C249.696 99.3642 248.27 99.8984 246.843 100.432C243.04 101.856 239.24 103.287 235.445 104.734C234.359 105.147 234.359 105.147 233.25 105.568C231.851 106.099 230.452 106.634 229.055 107.17C224.225 109 224.225 109 222 109C222 105.04 222 101.08 222 97C224.936 95.9945 227.873 94.9954 230.812 94C231.646 93.7138 232.479 93.4277 233.338 93.1328C234.542 92.7268 234.542 92.7268 235.77 92.3125C236.508 92.0611 237.246 91.8098 238.007 91.5508C240 91 240 91 243 91C243 90.34 243 89.68 243 89C242.091 88.8356 242.091 88.8356 241.164 88.668C224.518 85.518 224.518 85.518 222 83C221.928 81.1471 221.916 79.2917 221.937 77.4375C221.947 76.4256 221.956 75.4137 221.965 74.3711C221.976 73.5886 221.988 72.8062 222 72Z"
    fill="#00B75F" />
  <path d="M53 0C56.96 0 60.92 0 65 0C65 16.5 65 33 65 50C61.04 50 57.08 50 53 50C53 33.5 53 17 53 0Z" fill="#FCFCFC" />
  <path
    d="M150 69C152.97 69 155.94 69 159 69C167 88.617 167 88.617 167 92C167.66 92 168.32 92 169 92C169.103 91.3606 169.206 90.7212 169.312 90.0625C170.242 85.9241 171.623 82.0117 173 78C175.97 78 178.94 78 182 78C181.291 82.3698 179.849 86.3703 178.277 90.4883C178.012 91.1915 177.747 91.8947 177.475 92.6192C176.632 94.8517 175.785 97.0821 174.938 99.3125C174.364 100.831 173.79 102.35 173.217 103.869C171.815 107.581 170.409 111.291 169 115C168.34 115 167.68 115 167 115C164.574 108.772 162.154 102.542 159.737 96.311C158.913 94.1901 158.089 92.0697 157.263 89.9497C156.079 86.9078 154.898 83.8642 153.719 80.8203C153.347 79.8682 152.975 78.9161 152.592 77.9351C152.081 76.6139 152.081 76.6139 151.561 75.2661C151.259 74.4889 150.957 73.7117 150.645 72.9109C150 71 150 71 150 69Z"
    fill="#F5F5F5" />
  <path
    d="M210 59C212.64 59 215.28 59 218 59C217.263 65.2619 215.797 71.2683 214.25 77.375C213.849 78.968 213.849 78.968 213.44 80.5933C211.35 88.8103 209.045 96.943 206.583 105.055C205.585 108.382 204.637 111.722 203.688 115.062C203.361 116.208 203.035 117.354 202.699 118.535C202.468 119.349 202.238 120.162 202 121C199.36 121 196.72 121 194 121C194.502 115.047 195.491 109.535 197.188 103.812C197.639 102.242 198.089 100.672 198.539 99.1016C198.777 98.2782 199.014 97.4548 199.259 96.6064C200.574 91.9799 201.811 87.3318 203.062 82.6875C205.217 74.7378 207.484 66.8439 210 59Z"
    fill="#00B85F" />
  <path
    d="M170 30.75C173 31 173 31 175 33C175 33.99 175 34.98 175 36C172.03 35.505 172.03 35.505 169 35C168.67 35.99 168.34 36.98 168 38C168.784 38.1238 169.567 38.2475 170.375 38.375C173 39 173 39 175 41C175.125 44.125 175.125 44.125 175 47C173.35 47.66 171.7 48.32 170 49C170.576 46.6144 171.222 44.3332 172 42C169.69 41.34 167.38 40.68 165 40C164.567 41.6706 164.567 41.6706 164.125 43.375C163 47 163 47 161 49C158.375 49.125 158.375 49.125 156 49C156 48.01 156 47.02 156 46C156.99 45.67 157.98 45.34 159 45C159.33 42.36 159.66 39.72 160 37C161.32 37 162.64 37 164 37C164.124 36.3813 164.248 35.7625 164.375 35.125C165.397 31.6504 166.418 31.0485 170 30.75Z"
    fill="#00B25C" />
  <path
    d="M120.285 33.9023C121.66 33.9197 121.66 33.9197 123.062 33.9375C123.982 33.9465 124.901 33.9555 125.848 33.9648C126.558 33.9764 127.268 33.988 128 34C128.188 36.375 128.188 36.375 128 39C124.343 41.4377 122.31 41.2394 118 41C117 40 117 40 116.875 37.5C117.036 34.2703 117.065 34.04 120.285 33.9023Z"
    fill="#141414" />
  <path
    d="M164 34C165.495 37.9863 164.965 41.9423 164 46C162.75 48 162.75 48 161 49C158.312 49.1875 158.312 49.1875 156 49C156 48.01 156 47.02 156 46C156.99 45.67 157.98 45.34 159 45C159.33 42.36 159.66 39.72 160 37C161.32 37 162.64 37 164 37C164 36.01 164 35.02 164 34Z"
    fill="#00A756" />
  <path
    d="M169 34C171.31 34.33 173.62 34.66 176 35C176 35.66 176 36.32 176 37C175.01 37 174.02 37 173 37C172.67 37.66 172.34 38.32 172 39C170.68 38.67 169.36 38.34 168 38C168.33 36.68 168.66 35.36 169 34Z"
    fill="#001109" />
  <path
    d="M157 31C159.31 31 161.62 31 164 31C164 31.99 164 32.98 164 34C161.69 34 159.38 34 157 34C157 33.01 157 32.02 157 31Z"
    fill="#00B45D" />
  <path
    d="M151 47C151 48.1046 150.105 49 149 49C147.895 49 147 48.1046 147 47C147 45.8954 147.895 45 149 45C150.105 45 151 45.8954 151 47Z"
    fill="#00B45D" />
</svg>